# xmcd CD database file
#
# Track frame offsets:
#	150
#	20092
#	40955
#	59335
#	77547
#	96615
#	112867
#	130785
#	147060
#	160032
#
# Disc length: 2411 seconds
#
# Revision: 0
# Processed by: cddbd v1.5PL3 Copyright (c) Steve Scherf et al.
# Submitted via: CDex 1.51
#
DISCID=7d09690a
DTITLE=渡辺桂子 - フォルテ・f
DYEAR=2003
DGENRE=Pop
TTITLE0=恋人白書
TTITLE1=マリオネット
TTITLE2=夢・バケイション
TTITLE3=蒼いメインテーマ
TTITLE4=虹のカンタータ
TTITLE5=純情レジスタンス
TTITLE6=Twinkle Baby
TTITLE7=真夏のレッスン
TTITLE8=マシュマロ・ファンタジー
TTITLE9=悲しみのセパレーション
EXTD=YEAR: 2003
EXTT0=
EXTT1=
EXTT2=
EXTT3=
EXTT4=
EXTT5=
EXTT6=
EXTT7=
EXTT8=
EXTT9=
PLAYORDER=
